<svg width="540" height="105" viewBox="0 0 540 105" fill="none" xmlns="http://www.w3.org/2000/svg">
<path fill-rule="evenodd" clip-rule="evenodd" d="M46.1451 1L90.2902 26.5717V77.697L46.1451 103.269L2 77.697V26.5717L46.1451 1ZM8.28967 30.197V74.0717L46.1451 96L84.0005 74.0717V30.197L46.1451 8.26872L8.28967 30.197Z" fill="black"></path>
<path fill-rule="evenodd" clip-rule="evenodd" d="M88.453 54.9791L4.66074 77.6417L3.67676 74.0035L87.469 51.3409L88.453 54.9791Z" fill="black"></path>
<path fill-rule="evenodd" clip-rule="evenodd" d="M74.9068 18.9931L44.9042 66.0359L41.7266 64.0093L71.7292 16.9666L74.9068 18.9931Z" fill="black"></path>
<path fill-rule="evenodd" clip-rule="evenodd" d="M72.873 21.0642L5.36715 31.8148L4.77441 28.0928L72.2803 17.3423L72.873 21.0642Z" fill="black"></path>
<path fill-rule="evenodd" clip-rule="evenodd" d="M5.34851 27.5562L45.9163 65.0347L43.3588 67.803L2.79102 30.3245L5.34851 27.5562Z" fill="black"></path>
<path fill-rule="evenodd" clip-rule="evenodd" d="M44.2138 63.7952L65.8385 88.9786L62.9791 91.4339L41.3545 66.2504L44.2138 63.7952Z" fill="black"></path>
<path d="M510.338 23C516.905 23 522.064 24.3288 525.737 27.0647C529.646 29.9569 531.913 34.4906 532.46 40.5876H523.392C522.611 37.1482 521.126 34.6469 519.093 33.1617C517.061 31.5984 513.934 30.8949 509.869 30.8949C506.352 30.8949 503.694 31.3639 501.818 32.3801C499.473 33.5526 498.379 35.5067 498.379 38.1644C498.379 40.5094 499.63 42.4636 502.287 43.8706C503.46 44.496 506.665 45.6685 511.824 47.31C519.406 49.655 524.252 51.531 526.441 52.7817C531.287 55.6739 533.71 59.6604 533.71 64.8194C533.71 69.8221 531.756 73.8086 527.848 76.7008C523.94 79.5148 518.39 81 511.276 81C504.398 81 499.004 79.6712 495.174 77.0135C490.484 73.7305 487.905 68.5714 487.514 61.4582H496.581C497.206 65.6792 498.692 68.7278 501.115 70.5256C503.303 72.0889 506.665 72.9488 511.276 72.9488C515.341 72.9488 518.624 72.2453 520.969 70.9164C523.314 69.5094 524.565 67.7116 524.565 65.3666C524.565 62.3962 522.767 60.0512 519.328 58.3315C518.233 57.7844 514.638 56.5337 508.462 54.6577C501.584 52.469 497.285 50.9057 495.643 49.9677C491.344 47.3881 489.233 43.6361 489.233 38.7116C489.233 33.7871 491.266 29.8787 495.487 27.0647C499.395 24.3288 504.32 23 510.338 23Z" fill="black"></path>
<path d="M473.977 24.094H485.546L461.001 48.0131L489.219 79.9053H476.869L454.826 54.032L448.025 60.6762V79.9053H438.88V24.094H448.025V50.4363L473.977 24.094Z" fill="black"></path>
<path d="M404.298 23C410.865 23 416.336 24.7197 420.557 28.159C424.622 31.4421 427.045 35.9757 427.905 41.6038H418.994C418.056 37.9299 416.336 35.2722 413.757 33.5526C411.255 31.8329 408.05 31.0512 404.142 31.0512C398.28 31.0512 393.902 33.0054 390.932 37.0701C388.196 40.6658 386.867 45.6685 386.867 52.0782C386.867 58.6442 388.196 63.7251 390.854 67.2426C393.746 70.9946 398.28 72.9488 404.377 72.9488C408.363 72.9488 411.646 71.9326 414.148 70.0566C416.805 67.9461 418.681 64.7412 419.776 60.5202H428.687C427.436 67.0862 424.544 72.1671 419.932 75.841C415.633 79.2803 410.474 81 404.455 81C395.153 81 388.196 78.0296 383.662 72.2453C379.676 67.2426 377.722 60.5202 377.722 52.0782C377.722 43.7925 379.754 36.9919 383.897 31.8329C388.587 25.8922 395.387 23 404.298 23Z" fill="black"></path>
<path d="M342.671 23C351.191 23 357.913 25.7359 362.838 31.2857C367.528 36.5229 369.873 43.4798 369.873 52.0782C369.873 60.6765 367.528 67.5553 362.838 72.7925C357.913 78.2641 351.191 81 342.671 81C334.072 81 327.35 78.186 322.504 72.7143C317.814 67.3989 315.547 60.5202 315.547 52.0782C315.547 43.558 317.814 36.6792 322.504 31.3639C327.35 25.7359 334.072 23 342.671 23ZM342.671 31.0512C336.887 31.0512 332.431 33.0054 329.226 36.9137C326.178 40.6658 324.692 45.6685 324.692 52.0782C324.692 58.4097 326.178 63.4124 329.226 67.1644C332.353 70.9946 336.887 72.9488 342.671 72.9488C348.455 72.9488 352.911 71.0728 356.037 67.3989C359.086 63.7251 360.649 58.6442 360.649 52.0782C360.649 45.5121 359.086 40.3531 356.037 36.6011C352.911 32.8491 348.455 31.0512 342.671 31.0512Z" fill="black"></path>
<path d="M270.07 24.094H279.138V72.0886H309.31V79.9053H270.07V24.094Z" fill="black"></path>
<path d="M214.538 24.094H240.099C245.649 24.094 250.026 25.4228 253.153 28.0805C256.045 30.5819 257.53 33.9431 257.53 38.1641C257.53 41.2908 256.748 43.9484 255.263 46.1371C253.778 48.1695 251.667 49.6546 248.853 50.749C252.527 51.4525 255.263 52.9377 257.139 55.2045C258.937 57.3932 259.875 60.4417 259.875 64.1937C259.875 69.8217 257.921 73.9646 254.091 76.6223C250.808 78.811 246.118 79.9053 240.177 79.9053H214.538V24.094ZM223.684 31.598V47.5441H237.676C241.584 47.5441 244.32 46.8406 245.961 45.5899C247.525 44.2611 248.384 42.1506 248.384 39.2584C248.384 36.6007 247.525 34.6466 245.961 33.474C244.242 32.2234 241.584 31.598 237.832 31.598H223.684ZM223.684 55.0482V72.4013H238.848C242.287 72.4013 245.023 71.8541 246.977 70.7598C249.479 69.3527 250.729 67.1641 250.729 64.0374C250.729 60.8325 249.791 58.5657 247.994 57.1587C246.118 55.7517 243.147 55.0482 239.083 55.0482H223.684Z" fill="black"></path>
<path d="M166.643 24.094H204.397V31.4417L184.856 79.9053H175.163L195.174 32.3797H166.643V24.094Z" fill="black"></path>
<path d="M120.006 24.094H157.058V32.1452H128.839L128.839 47.466H129.074C130.793 45.7463 132.748 44.4956 135.014 43.7139C137.047 42.9323 139.314 42.5414 141.815 42.5414C147.052 42.5414 151.351 44.2611 154.634 47.7005C157.917 51.1398 159.637 55.908 159.637 61.9269C159.637 67.7112 157.448 72.4013 153.071 76.0751C149.006 79.3581 144.238 80.9997 138.688 80.9997C133.607 80.9997 129.23 79.5926 125.634 76.8568C121.57 73.8083 119.381 69.6654 118.99 64.5064H127.979C128.37 67.5549 129.543 69.8218 131.575 71.3069C133.295 72.5576 135.718 73.2611 138.767 73.2611C142.05 73.2611 144.864 72.2449 147.13 70.2126C149.319 68.1802 150.492 65.4444 150.492 62.005C150.492 58.253 149.475 55.2827 147.599 53.1722C145.723 50.9835 142.909 49.9673 139.314 49.9673C136.891 49.9673 134.78 50.3581 133.06 51.218C131.106 52.156 129.621 53.563 128.527 55.5172H120.006L120.006 24.094Z" fill="black"></path>
</svg>