<svg width="565" height="105" viewBox="0 0 565 105" fill="none" xmlns="http://www.w3.org/2000/svg">
<path fill-rule="evenodd" clip-rule="evenodd" d="M45.1451 1L89.2902 26.5717V77.697L45.1451 103.269L1 77.697V26.5717L45.1451 1ZM7.28967 30.197V74.0717L45.1451 96L83.0005 74.0717V30.197L45.1451 8.26872L7.28967 30.197Z" fill="black"></path>
<path fill-rule="evenodd" clip-rule="evenodd" d="M87.453 54.9791L3.66074 77.6417L2.67676 74.0035L86.469 51.3409L87.453 54.9791Z" fill="black"></path>
<path fill-rule="evenodd" clip-rule="evenodd" d="M73.9068 18.9931L43.9042 66.0359L40.7266 64.0093L70.7292 16.9666L73.9068 18.9931Z" fill="black"></path>
<path fill-rule="evenodd" clip-rule="evenodd" d="M71.873 21.0642L4.36715 31.8148L3.77441 28.0928L71.2803 17.3423L71.873 21.0642Z" fill="black"></path>
<path fill-rule="evenodd" clip-rule="evenodd" d="M4.34851 27.5562L44.9163 65.0347L42.3588 67.803L1.79102 30.3245L4.34851 27.5562Z" fill="black"></path>
<path fill-rule="evenodd" clip-rule="evenodd" d="M43.2138 63.7952L64.8385 88.9786L61.9791 91.4339L40.3545 66.2504L43.2138 63.7952Z" fill="black"></path>
<path d="M537.028 21C544.047 21 549.562 22.4205 553.489 25.345C557.667 28.4367 560.09 33.283 560.675 39.8005H550.982C550.146 36.124 548.559 33.4501 546.386 31.8625C544.214 30.1914 540.871 29.4394 536.526 29.4394C532.766 29.4394 529.925 29.9407 527.92 31.027C525.413 32.2803 524.243 34.3693 524.243 37.2102C524.243 39.717 525.58 41.8059 528.421 43.31C529.675 43.9784 533.101 45.2318 538.615 46.9865C546.721 49.4933 551.901 51.4986 554.241 52.8356C559.421 55.9272 562.012 60.1887 562.012 65.7035C562.012 71.0512 559.923 75.3127 555.745 78.4043C551.567 81.4124 545.634 83 538.031 83C530.677 83 524.912 81.5795 520.818 78.7385C515.804 75.2291 513.047 69.7143 512.629 62.1105H522.322C522.99 66.6226 524.578 69.8814 527.168 71.8032C529.508 73.4744 533.101 74.3935 538.031 74.3935C542.376 74.3935 545.885 73.6415 548.392 72.221C550.898 70.717 552.235 68.7951 552.235 66.2884C552.235 63.1132 550.314 60.6065 546.637 58.7682C545.467 58.1833 541.624 56.8464 535.022 54.841C527.669 52.5013 523.074 50.8302 521.319 49.8275C516.723 47.0701 514.467 43.0593 514.467 37.7951C514.467 32.531 516.64 28.3531 521.152 25.345C525.33 22.4205 530.594 21 537.028 21Z" fill="black"></path>
<path d="M498.158 22.1694H510.525L484.288 47.7382L514.452 81.8298H501.25L477.686 54.1721L470.417 61.2746V81.8298H460.641V22.1694H470.417V50.3285L498.158 22.1694Z" fill="black"></path>
<path d="M423.674 21C430.693 21 436.542 22.8383 441.054 26.5148C445.399 30.0243 447.99 34.8706 448.909 40.8868H439.383C438.381 36.9596 436.542 34.1186 433.785 32.2803C431.111 30.4421 427.685 29.6065 423.507 29.6065C417.24 29.6065 412.561 31.6954 409.386 36.0404C406.461 39.8841 405.041 45.2318 405.041 52.0836C405.041 59.1024 406.461 64.5337 409.302 68.2938C412.394 72.3046 417.24 74.3935 423.758 74.3935C428.019 74.3935 431.529 73.3073 434.203 71.3019C437.044 69.0458 439.049 65.6199 440.219 61.1078H449.744C448.408 68.1267 445.316 73.5579 440.386 77.4852C435.79 81.1617 430.275 83 423.841 83C413.898 83 406.461 79.8248 401.615 73.6415C397.354 68.2938 395.265 61.1078 395.265 52.0836C395.265 43.2264 397.437 35.9569 401.866 30.4421C406.879 24.0916 414.149 21 423.674 21Z" fill="black"></path>
<path d="M357.796 21C366.904 21 374.09 23.9245 379.354 29.8571C384.368 35.4555 386.875 42.8922 386.875 52.0836C386.875 61.2749 384.368 68.628 379.354 74.2264C374.09 80.0755 366.904 83 357.796 83C348.605 83 341.419 79.9919 336.238 74.1429C331.225 68.4609 328.802 61.1078 328.802 52.0836C328.802 42.9757 331.225 35.6226 336.238 29.9407C341.419 23.9245 348.605 21 357.796 21ZM357.796 29.6065C351.613 29.6065 346.85 31.6954 343.424 35.8733C340.166 39.8841 338.578 45.2318 338.578 52.0836C338.578 58.8518 340.166 64.1995 343.424 68.2102C346.767 72.3046 351.613 74.3935 357.796 74.3935C363.98 74.3935 368.742 72.3881 372.085 68.4609C375.344 64.5337 377.015 59.1024 377.015 52.0836C377.015 45.0647 375.344 39.5499 372.085 35.5391C368.742 31.5283 363.98 29.6065 357.796 29.6065Z" fill="black"></path>
<path d="M280.188 22.1694H289.881V73.474H322.135V81.8298H280.188V22.1694Z" fill="black"></path>
<path d="M220.827 22.1694H248.151C254.083 22.1694 258.762 23.5899 262.105 26.4309C265.196 29.1047 266.784 32.6977 266.784 37.2099C266.784 40.5522 265.948 43.3932 264.361 45.7328C262.773 47.9053 260.517 49.4929 257.509 50.6627C261.436 51.4147 264.361 53.0023 266.366 55.4255C268.288 57.7651 269.291 61.0239 269.291 65.0347C269.291 71.0508 267.202 75.4794 263.107 78.3204C259.598 80.66 254.585 81.8298 248.234 81.8298H220.827V22.1694ZM230.603 30.191V47.2368H245.56C249.738 47.2368 252.663 46.4848 254.417 45.1479C256.089 43.7274 257.008 41.4713 257.008 38.3797C257.008 35.5387 256.089 33.4498 254.417 32.1964C252.579 30.8595 249.738 30.191 245.727 30.191H230.603ZM230.603 55.2584V73.8082H246.814C250.49 73.8082 253.415 73.2233 255.504 72.0535C258.178 70.5495 259.514 68.2099 259.514 64.8675C259.514 61.4417 258.512 59.0185 256.59 57.5144C254.585 56.0104 251.409 55.2584 247.064 55.2584H230.603Z" fill="black"></path>
<path d="M169.628 22.1694H209.986V30.0239L189.097 81.8298H178.736L200.127 31.0266H169.628V22.1694Z" fill="black"></path>
<path d="M119.776 22.1694H159.382V30.7759H129.218L129.218 47.1533H129.468C131.307 45.315 133.396 43.9781 135.819 43.1425C137.991 42.3069 140.415 41.8891 143.088 41.8891C148.687 41.8891 153.282 43.7274 156.792 47.4039C160.301 51.0805 162.14 56.1775 162.14 62.6115C162.14 68.7948 159.8 73.8082 155.121 77.7355C150.776 81.2449 145.679 82.9996 139.746 82.9996C134.315 82.9996 129.636 81.4956 125.792 78.571C121.447 75.3123 119.107 70.8837 118.689 65.3689H128.299C128.716 68.6276 129.97 71.0508 132.142 72.6384C133.981 73.9754 136.571 74.7274 139.83 74.7274C143.339 74.7274 146.347 73.6411 148.77 71.4686C151.11 69.2961 152.363 66.3716 152.363 62.695C152.363 58.6843 151.277 55.5091 149.272 53.253C147.266 50.9134 144.258 49.8271 140.415 49.8271C137.824 49.8271 135.568 50.2449 133.73 51.164C131.641 52.1667 130.053 53.6708 128.884 55.7597H119.776L119.776 22.1694Z" fill="black"></path>
</svg>