<svg width="146" height="36" viewBox="0 0 146 36" fill="none" xmlns="http://www.w3.org/2000/svg">
<path d="M138.616 10.3848C140.238 10.3848 141.513 10.7131 142.421 11.389C143.386 12.1035 143.946 13.2236 144.082 14.73H141.841C141.648 13.8803 141.281 13.2623 140.779 12.8953C140.277 12.5091 139.505 12.3353 138.5 12.3353C137.631 12.3353 136.975 12.4512 136.511 12.7022C135.932 12.9919 135.661 13.4747 135.661 14.1313C135.661 14.7107 135.97 15.1935 136.627 15.5411C136.917 15.6956 137.709 15.9853 138.983 16.3908C140.856 16.9702 142.054 17.4337 142.594 17.7427C143.792 18.4572 144.391 19.4422 144.391 20.7168C144.391 21.9527 143.908 22.9377 142.942 23.6522C141.977 24.3474 140.605 24.7144 138.848 24.7144C137.148 24.7144 135.816 24.3861 134.87 23.7295C133.711 22.9183 133.074 21.6437 132.977 19.8863H135.217C135.372 20.9292 135.739 21.6824 136.337 22.1265C136.878 22.5128 137.709 22.7252 138.848 22.7252C139.852 22.7252 140.663 22.5514 141.243 22.2231C141.822 21.8755 142.131 21.4313 142.131 20.8519C142.131 20.1181 141.687 19.5387 140.837 19.1139C140.567 18.9787 139.678 18.6697 138.153 18.2062C136.453 17.6654 135.391 17.2792 134.986 17.0475C133.923 16.4102 133.402 15.4832 133.402 14.2665C133.402 13.0498 133.904 12.0842 134.947 11.389C135.912 10.7131 137.129 10.3848 138.616 10.3848Z" fill="black"></path>
<path d="M129.633 10.6543H132.491L126.427 16.5638L133.398 24.4432H130.347L124.901 18.0508L123.221 19.6924V24.4432H120.961V10.6543H123.221V17.1625L129.633 10.6543Z" fill="black"></path>
<path d="M112.418 10.3848C114.04 10.3848 115.392 10.8096 116.435 11.6594C117.439 12.4705 118.038 13.5906 118.25 14.9811H116.048C115.817 14.0734 115.392 13.4168 114.754 12.9919C114.136 12.567 113.345 12.3739 112.379 12.3739C110.931 12.3739 109.849 12.8567 109.115 13.8609C108.439 14.7493 108.111 15.9853 108.111 17.5689C108.111 19.1911 108.439 20.4464 109.096 21.3154C109.811 22.2424 110.931 22.7252 112.437 22.7252C113.422 22.7252 114.233 22.4742 114.851 22.0107C115.508 21.4892 115.971 20.6974 116.241 19.6546H118.443C118.134 21.2768 117.42 22.5321 116.28 23.4398C115.218 24.2895 113.943 24.7144 112.456 24.7144C110.158 24.7144 108.439 23.9805 107.319 22.5514C106.334 21.3154 105.852 19.6546 105.852 17.5689C105.852 15.5218 106.354 13.8416 107.377 12.567C108.536 11.0993 110.216 10.3848 112.418 10.3848Z" fill="black"></path>
<path d="M97.192 10.3848C99.2971 10.3848 100.958 11.0607 102.175 12.4319C103.333 13.7258 103.913 15.4445 103.913 17.5689C103.913 19.6932 103.333 21.3927 102.175 22.6866C100.958 24.0384 99.2971 24.7144 97.192 24.7144C95.0677 24.7144 93.4069 24.0191 92.2095 22.6673C91.0508 21.3541 90.4907 19.6546 90.4907 17.5689C90.4907 15.4639 91.0508 13.7644 92.2095 12.4512C93.4069 11.0607 95.0677 10.3848 97.192 10.3848ZM97.192 12.3739C95.7629 12.3739 94.6621 12.8567 93.8703 13.8223C93.1172 14.7493 92.7502 15.9853 92.7502 17.5689C92.7502 19.1332 93.1172 20.3691 93.8703 21.2961C94.6428 22.2424 95.7629 22.7252 97.192 22.7252C98.6211 22.7252 99.7219 22.2617 100.494 21.3541C101.248 20.4464 101.634 19.1911 101.634 17.5689C101.634 15.9467 101.248 14.6721 100.494 13.7451C99.7219 12.8181 98.6211 12.3739 97.192 12.3739Z" fill="black"></path>
<path d="M79.2549 10.6543H81.4951V22.5119H88.9496V24.4432H79.2549V10.6543Z" fill="black"></path>
<path d="M65.5352 10.6543H71.8502C73.2214 10.6543 74.3029 10.9826 75.0753 11.6392C75.7899 12.2572 76.1568 13.0876 76.1568 14.1305C76.1568 14.903 75.9637 15.5596 75.5968 16.1003C75.2298 16.6024 74.7084 16.9694 74.0132 17.2397C74.9209 17.4135 75.5968 17.7805 76.0603 18.3405C76.5044 18.8813 76.7362 19.6344 76.7362 20.5614C76.7362 21.9519 76.2534 22.9754 75.3071 23.632C74.496 24.1728 73.3373 24.4432 71.8695 24.4432H65.5352V10.6543ZM67.7947 12.5083V16.4479H71.2515C72.2172 16.4479 72.8931 16.2741 73.2986 15.9651C73.6849 15.6368 73.8973 15.1154 73.8973 14.4009C73.8973 13.7442 73.6849 13.2614 73.2986 12.9718C72.8738 12.6628 72.2172 12.5083 71.2902 12.5083H67.7947ZM67.7947 18.3019V22.5892H71.5412C72.391 22.5892 73.0669 22.454 73.5497 22.1836C74.1677 21.836 74.4767 21.2953 74.4767 20.5228C74.4767 19.731 74.2449 19.1709 73.8007 18.8233C73.3373 18.4757 72.6034 18.3019 71.5992 18.3019H67.7947Z" fill="black"></path>
<path d="M53.7017 10.6543H63.0294V12.4696L58.2014 24.4432H55.8067L60.7506 12.7014H53.7017V10.6543Z" fill="black"></path>
<path d="M42.1802 10.6543H51.3342V12.6434H44.3625L44.3625 16.4286H44.4205C44.8453 16.0038 45.3281 15.6948 45.8882 15.5016C46.3903 15.3085 46.9504 15.212 47.5683 15.212C48.8623 15.212 49.9244 15.6368 50.7355 16.4866C51.5466 17.3363 51.9715 18.5143 51.9715 20.0014C51.9715 21.4305 51.4308 22.5892 50.3493 23.4969C49.3451 24.308 48.167 24.7135 46.7959 24.7135C45.5406 24.7135 44.4591 24.3659 43.5707 23.69C42.5665 22.9368 42.0258 21.9133 41.9292 20.6387H44.1501C44.2467 21.3918 44.5363 21.9519 45.0385 22.3188C45.4633 22.6278 46.062 22.8016 46.8152 22.8016C47.6263 22.8016 48.3215 22.5506 48.8816 22.0485C49.4223 21.5463 49.712 20.8704 49.712 20.0207C49.712 19.0937 49.4609 18.3598 48.9974 17.8384C48.5339 17.2977 47.8387 17.0466 46.9504 17.0466C46.3517 17.0466 45.8303 17.1432 45.4054 17.3556C44.9226 17.5874 44.5556 17.935 44.2853 18.4178H42.1803L42.1802 10.6543Z" fill="black"></path>
<path fill-rule="evenodd" clip-rule="evenodd" d="M17.6272 0.345703L32.9082 9.19744V26.8947L17.6272 35.7464L2.34619 26.8947V9.19744L17.6272 0.345703ZM4.52339 10.4524V25.6398L17.6272 33.2303L30.731 25.6398V10.4524L17.6272 2.8618L4.52339 10.4524Z" fill="black"></path>
<path fill-rule="evenodd" clip-rule="evenodd" d="M32.2719 19.0308L3.26688 26.8756L2.92627 25.6162L31.9313 17.7715L32.2719 19.0308Z" fill="black"></path>
<path fill-rule="evenodd" clip-rule="evenodd" d="M27.5831 6.57456L17.1976 22.8586L16.0977 22.1571L26.4832 5.87305L27.5831 6.57456Z" fill="black"></path>
<path fill-rule="evenodd" clip-rule="evenodd" d="M26.8792 7.29032L3.51182 11.0117L3.30664 9.72329L26.6741 6.00195L26.8792 7.29032Z" fill="black"></path>
<path fill-rule="evenodd" clip-rule="evenodd" d="M3.50541 9.53906L17.5481 22.5124L16.6628 23.4707L2.62012 10.4973L3.50541 9.53906Z" fill="black"></path>
<path fill-rule="evenodd" clip-rule="evenodd" d="M16.9585 22.082L24.444 30.7994L23.4542 31.6493L15.9688 22.9319L16.9585 22.082Z" fill="black"></path>
</svg>