<svg width="60" height="60" viewBox="0 0 60 60" fill="none" xmlns="http://www.w3.org/2000/svg">
<path d="M59.1025 37.2571C55.0958 53.3287 38.8179 63.1096 22.7444 59.1018C6.67767 55.0951 -3.10318 38.8162 0.905292 22.7459C4.91025 6.67257 21.1882 -3.10901 37.2567 0.897703C53.329 4.90442 63.1093 21.1851 59.1021 37.2574L59.1024 37.2571H59.1025Z" fill="#F7931A"></path>
<path fill-rule="evenodd" clip-rule="evenodd" d="M43.2325 25.7253C43.8296 21.733 40.7901 19.587 36.6338 18.1553L37.9821 12.7474L34.6901 11.9271L33.3776 17.1927C32.5121 16.9768 31.6234 16.7734 30.74 16.5718L32.0621 11.2715L28.7721 10.4512L27.4231 15.8574C26.7069 15.6943 26.0035 15.5332 25.321 15.3634L25.3248 15.3464L20.7851 14.2127L19.9094 17.7288C19.9094 17.7288 22.3518 18.2886 22.3003 18.3231C23.6334 18.6558 23.8745 19.5383 23.8344 20.2377L22.2985 26.3987C22.3903 26.422 22.5094 26.4557 22.6408 26.5085L22.5453 26.4847L22.5452 26.4847C22.464 26.4644 22.3795 26.4432 22.2928 26.4225L20.14 35.0531C19.9771 35.4581 19.5636 36.0659 18.6316 35.8351C18.6646 35.8829 16.2389 35.238 16.2389 35.238L14.6045 39.0063L18.8885 40.0742C19.3576 40.1919 19.8212 40.3127 20.28 40.4324L20.281 40.4326C20.6014 40.5161 20.9195 40.599 21.2356 40.6799L19.8733 46.1499L23.1615 46.9702L24.5106 41.5582C25.4089 41.8021 26.2806 42.027 27.1341 42.2391L25.7895 47.6255L29.0817 48.4458L30.4438 42.986C36.0574 44.0484 40.2783 43.6201 42.055 38.5426C43.4866 34.4547 41.9837 32.0967 39.0304 30.5591C41.1815 30.063 42.8017 28.6483 43.2337 25.7258L43.2326 25.7251L43.2325 25.7253ZM35.711 36.2724C34.7776 40.023 28.9069 38.4724 26.2209 37.7629C25.9793 37.6991 25.7634 37.6421 25.5793 37.5964L27.387 30.3496C27.6115 30.4056 27.8857 30.4671 28.1964 30.5369L28.1965 30.5369C30.9749 31.1604 36.6673 32.4379 35.7112 36.2724H35.711ZM28.7538 27.1735C30.9932 27.7711 35.8783 29.0749 36.7291 25.6661H36.7294C37.5982 22.1798 32.8506 21.1287 30.5319 20.6153C30.271 20.5575 30.0409 20.5066 29.853 20.4598L28.214 27.0322C28.3688 27.0708 28.5504 27.1192 28.7538 27.1735Z" fill="white"></path>
</svg>