<svg width="141" height="38" viewBox="0 0 141 38" fill="none" xmlns="http://www.w3.org/2000/svg">
<path d="M38 19C38 29.4934 29.4934 38 19 38C8.50659 38 0 29.4934 0 19C0 8.50659 8.50659 0 19 0C29.4934 0 38 8.50659 38 19Z" fill="url(#paint0_linear_9382_3636)"></path>
<path opacity="0.6" fill-rule="evenodd" clip-rule="evenodd" d="M21.3572 25.4058C21.8625 24.7155 22.1715 23.9106 22.2841 22.8158H19.0566C19.0565 22.8165 19.0564 22.8173 19.0563 22.8181H19.8329C19.8329 23.784 20.1575 24.523 20.8066 25.0527C20.972 25.1876 21.1555 25.3053 21.3572 25.4058ZM17.7062 13.7218C17.0905 13.2658 16.23 13.0378 15.1247 13.0378C13.7159 13.0378 12.6315 13.512 11.8716 14.4605C11.1202 15.4011 10.736 16.7846 10.7189 18.611V20.1277C10.7189 21.9776 11.0775 23.3886 11.7948 24.3605C12.5205 25.3325 13.5793 25.8185 14.971 25.8185C16.0218 25.8185 16.857 25.6394 17.4768 25.2811C17.5443 25.3942 17.6172 25.505 17.6954 25.6135C18.1399 26.2223 18.7165 26.7324 19.4253 27.1438C18.2373 27.8593 16.7526 28.2171 14.971 28.2171C13.4853 28.2171 12.1747 27.8957 11.0391 27.253C9.91205 26.6024 9.04114 25.6813 8.42638 24.4899C7.81162 23.2984 7.49144 21.9149 7.46582 20.3394V18.7403C7.46582 17.1256 7.77747 15.7029 8.40077 14.4722C9.02407 13.2416 9.91632 12.2931 11.0775 11.6269C12.2473 10.9606 13.5963 10.6274 15.1247 10.6274C16.8679 10.6274 18.3231 10.9959 19.4904 11.7328C19.3423 11.8274 19.1992 11.9285 19.061 12.0362C18.438 12.5249 17.9864 13.0868 17.7062 13.7218Z" fill="white"></path>
<path d="M26.7438 23.5685C26.7438 22.8207 26.4746 22.2442 25.9363 21.8392C25.4058 21.4341 24.444 21.0252 23.0506 20.6123C21.6573 20.1995 20.549 19.7399 19.7256 19.2335C18.1502 18.2598 17.3625 16.9901 17.3625 15.4244C17.3625 14.0534 17.9285 12.9239 19.0606 12.0359C20.2006 11.1479 21.6771 10.7039 23.49 10.7039C24.6933 10.7039 25.766 10.922 26.7081 11.3582C27.6502 11.7944 28.3904 12.4176 28.9288 13.2277C29.4671 14.03 29.7362 14.922 29.7362 15.9035H26.7438C26.7438 15.0154 26.4588 14.3222 25.8888 13.8236C25.3267 13.3173 24.5192 13.0641 23.4663 13.0641C22.4846 13.0641 21.7206 13.2706 21.1744 13.6834C20.636 14.0963 20.3669 14.6727 20.3669 15.4127C20.3669 16.0359 20.6598 16.5578 21.2456 16.9784C21.8315 17.3913 22.7973 17.7963 24.1431 18.1936C25.489 18.5831 26.5696 19.031 27.385 19.5373C28.2004 20.0359 28.7981 20.6123 29.1781 21.2666C29.5581 21.9132 29.7481 22.6727 29.7481 23.5451C29.7481 24.9628 29.194 26.0923 28.0856 26.9336C26.9852 27.7671 25.489 28.1839 23.5969 28.1839C22.346 28.1839 21.1942 27.958 20.1413 27.5062C19.0963 27.0466 18.2808 26.4156 17.695 25.6133C17.1171 24.8109 16.8281 23.885 16.8281 22.8178H19.8325C19.8325 23.7837 20.1571 24.5227 20.8063 25.0524C21.4554 25.5821 22.3856 25.847 23.5969 25.847C24.6419 25.847 25.4256 25.6405 25.9481 25.2277C26.4785 24.807 26.7438 24.254 26.7438 23.5685Z" fill="white"></path>
<rect x="22.4199" y="9.12012" width="2.28" height="3.04" fill="white"></rect>
<rect x="22.4199" y="26.98" width="2.28" height="2.66" fill="white"></rect>
<path d="M53.0454 25.9237C56.1234 25.9237 57.993 24.3277 59.1558 22.5037L56.8758 21.3409C56.1462 22.6177 54.687 23.5525 53.0454 23.5525C50.0358 23.5525 47.8014 21.2497 47.8014 18.0577C47.8014 14.8657 50.0358 12.5629 53.0454 12.5629C54.687 12.5629 56.1462 13.5205 56.8758 14.7745L59.1558 13.6117C58.0158 11.7877 56.1234 10.1917 53.0454 10.1917C48.5538 10.1917 45.0654 13.3837 45.0654 18.0577C45.0654 22.7317 48.5538 25.9237 53.0454 25.9237Z" fill="black"></path>
<path d="M70.3424 25.6501V18.3541C70.3424 15.3901 68.1992 14.3641 65.7596 14.3641C64.004 14.3641 62.408 14.9341 61.1312 16.1425L62.1116 17.8069C63.0692 16.8721 64.1408 16.4161 65.372 16.4161C66.8996 16.4161 67.9484 17.1913 67.9484 18.4681V20.1097C67.1504 19.1749 65.8736 18.6961 64.3916 18.6961C62.5904 18.6961 60.5612 19.7449 60.5612 22.2757C60.5612 24.7153 62.5904 25.9237 64.3916 25.9237C65.8508 25.9237 67.1276 25.3993 67.9484 24.4645V25.6501H70.3424ZM65.3264 24.2821C63.9812 24.2821 62.978 23.5069 62.978 22.3213C62.978 21.1129 63.9812 20.3377 65.3264 20.3377C66.3752 20.3377 67.4012 20.7253 67.9484 21.4777V23.1421C67.4012 23.8945 66.3752 24.2821 65.3264 24.2821Z" fill="black"></path>
<path d="M79.3743 25.9237C82.2243 25.9237 84.2535 23.7577 84.2535 20.1325C84.2535 16.5073 82.2243 14.3641 79.3743 14.3641C77.9379 14.3641 76.6611 15.0481 75.8403 16.1425V14.6377H73.4463V29.8453H75.8403V24.1225C76.7295 25.3081 77.9835 25.9237 79.3743 25.9237ZM78.6675 23.8033C77.5503 23.8033 76.3647 23.1193 75.8403 22.3213V17.9665C76.3647 17.1457 77.5503 16.4845 78.6675 16.4845C80.5599 16.4845 81.7683 18.0121 81.7683 20.1325C81.7683 22.2757 80.5599 23.8033 78.6675 23.8033Z" fill="black"></path>
<path d="M91.8943 25.9237C95.9983 25.9237 97.7767 23.7577 97.7767 21.2269C97.7767 15.5497 88.9303 17.3053 88.9303 14.4781C88.9303 13.3381 89.9335 12.5857 91.5067 12.5857C93.1027 12.5857 94.7215 13.1329 95.9071 14.3185L97.4347 12.3349C96.0211 10.9669 94.1059 10.2145 91.7347 10.2145C88.4059 10.2145 86.1943 12.1525 86.1943 14.6605C86.1943 20.2693 95.0635 18.2857 95.0635 21.4777C95.0635 22.4809 94.1971 23.5525 92.0083 23.5525C89.8879 23.5525 88.2463 22.5721 87.1975 21.4549L85.7155 23.5069C87.0607 24.9433 89.0899 25.9237 91.8943 25.9237Z" fill="black"></path>
<path d="M103.137 25.9237C104.254 25.9237 104.961 25.6273 105.394 25.2169L104.824 23.4157C104.642 23.6209 104.209 23.8033 103.753 23.8033C103.069 23.8033 102.704 23.2561 102.704 22.5037V16.7353H104.938V14.6377H102.704V11.6281H100.31V14.6377H98.4858V16.7353H100.31V23.0965C100.31 24.9205 101.29 25.9237 103.137 25.9237Z" fill="black"></path>
<path d="M116.232 25.6501V18.3541C116.232 15.3901 114.089 14.3641 111.649 14.3641C109.893 14.3641 108.297 14.9341 107.021 16.1425L108.001 17.8069C108.959 16.8721 110.03 16.4161 111.261 16.4161C112.789 16.4161 113.838 17.1913 113.838 18.4681V20.1097C113.04 19.1749 111.763 18.6961 110.281 18.6961C108.48 18.6961 106.451 19.7449 106.451 22.2757C106.451 24.7153 108.48 25.9237 110.281 25.9237C111.74 25.9237 113.017 25.3993 113.838 24.4645V25.6501H116.232ZM111.216 24.2821C109.871 24.2821 108.867 23.5069 108.867 22.3213C108.867 21.1129 109.871 20.3377 111.216 20.3377C112.265 20.3377 113.291 20.7253 113.838 21.4777V23.1421C113.291 23.8945 112.265 24.2821 111.216 24.2821Z" fill="black"></path>
<path d="M124.352 25.9237C126.495 25.9237 127.795 25.0117 128.57 23.9629L126.997 22.5037C126.381 23.3473 125.537 23.8033 124.466 23.8033C122.459 23.8033 121.137 22.2757 121.137 20.1325C121.137 17.9893 122.459 16.4845 124.466 16.4845C125.537 16.4845 126.381 16.9177 126.997 17.7841L128.57 16.3249C127.795 15.2761 126.495 14.3641 124.352 14.3641C121 14.3641 118.652 16.8037 118.652 20.1325C118.652 23.4841 121 25.9237 124.352 25.9237Z" fill="black"></path>
<path d="M140.975 25.6501L136.301 19.6309L140.883 14.6377H137.919L133.063 19.9501V10.4425H130.669V25.6501H133.063V22.6861L134.591 21.1129L137.965 25.6501H140.975Z" fill="black"></path>
<defs>
<linearGradient id="paint0_linear_9382_3636" x1="21.9534" y1="17.773" x2="35.0565" y2="6.54181" gradientUnits="userSpaceOnUse">
<stop stop-color="#6C5DD3"></stop>
<stop offset="1" stop-color="#B276F2"></stop>
</linearGradient>
</defs>
</svg>