<svg width="93" height="27" viewBox="0 0 93 27" fill="none" xmlns="http://www.w3.org/2000/svg">
<path fill-rule="evenodd" clip-rule="evenodd" d="M46.8458 2.16685V16.5786C46.8386 20.7474 49.4814 24.5049 53.5326 26.0872C57.5844 27.6705 62.2391 26.7644 65.3121 23.7951L77.0949 12.5817C79.0939 10.6809 82.2259 10.3863 84.5763 11.8809C86.9267 13.3747 87.8415 16.2397 86.762 18.7256C85.6817 21.2115 82.9075 22.6256 80.1347 22.1035C77.362 21.5819 75.3621 19.2694 75.3582 16.5786V16.4152L71.2488 20.3258C73.1444 24.9187 78.2041 27.5794 83.299 26.6638C88.3938 25.7472 92.0842 21.5128 92.0881 16.5786C92.1176 12.4117 89.4984 8.64091 85.4585 7.03299C81.4185 5.42559 76.7579 6.30091 73.6618 9.24776L68.2095 14.4361C67.4875 11.1009 65.0745 8.32267 61.7678 7.01975C58.4611 5.71683 54.6909 6.05812 51.7019 7.9316V2.16685C51.619 0.948393 50.5565 0 49.2736 0C47.9907 0 46.9279 0.948393 46.8458 2.16685ZM51.7019 16.5793C51.7019 13.4596 54.3597 10.93 57.6386 10.93C60.9172 10.93 63.5751 13.4596 63.5751 16.5793C63.5751 19.699 60.9172 22.2291 57.6386 22.2291C54.3597 22.2291 51.7019 19.699 51.7019 16.5793ZM26.8143 9.27589L14.9712 20.5751C12.6505 22.7755 8.8953 22.7718 6.5802 20.5658C4.26482 18.3606 4.26482 14.7862 6.5802 12.581C8.8953 10.3755 12.6505 10.3718 14.9712 12.5717C15.573 13.2024 16.4894 13.4671 17.3575 13.2622C18.2258 13.0578 18.9058 12.4163 19.1287 11.5913C19.3515 10.7676 19.0811 9.89279 18.4242 9.31454C14.2088 5.30386 7.37564 5.30492 3.16111 9.31534C-1.0537 13.3266 -1.0537 19.83 3.16111 23.8415C7.37564 27.8514 14.2088 27.853 18.4242 23.8417L30.2473 12.581C32.2463 10.6802 35.3786 10.3855 37.729 11.8801C40.0795 13.3739 40.9943 16.239 39.9142 18.7249C38.8344 21.2108 36.06 22.6249 33.2872 22.1028C30.5147 21.5812 28.5148 19.2687 28.5109 16.5779V16.4145L24.4013 20.3251C26.2873 24.9265 31.3505 27.5967 36.4503 26.6793C41.5504 25.7629 45.24 21.5182 45.2305 16.5779C45.2536 12.4163 42.6324 8.65236 38.5951 7.05159C37.2547 6.52046 35.8468 6.26258 34.4502 6.26258C31.6404 6.26258 28.8779 7.30761 26.8143 9.27589Z" fill="#4D84FF"></path>
</svg>