<svg width="40" height="40" viewBox="0 0 40 40" fill="none" xmlns="http://www.w3.org/2000/svg">
<path d="M15.0002 21.667C13.9002 22.217 12.9835 23.0337 12.3002 24.0503C11.9169 24.6337 11.9169 25.367 12.3002 25.9503C12.9835 26.967 13.9002 27.7837 15.0002 28.3337" stroke="#292D32" stroke-width="2.5" stroke-linecap="round" stroke-linejoin="round"></path>
<path d="M25.3496 21.667C26.4496 22.217 27.3663 23.0337 28.0496 24.0503C28.4329 24.6337 28.4329 25.367 28.0496 25.9503C27.3663 26.967 26.4496 27.7837 25.3496 28.3337" stroke="#292D32" stroke-width="2.5" stroke-linecap="round" stroke-linejoin="round"></path>
<path d="M14.9997 36.6663H24.9997C33.333 36.6663 36.6663 33.333 36.6663 24.9997V14.9997C36.6663 6.66634 33.333 3.33301 24.9997 3.33301H14.9997C6.66634 3.33301 3.33301 6.66634 3.33301 14.9997V24.9997C3.33301 33.333 6.66634 36.6663 14.9997 36.6663Z" stroke="#292D32" stroke-width="2.5" stroke-linecap="round" stroke-linejoin="round"></path>
<path d="M3.7168 13.3497L35.7501 13.333" stroke="#292D32" stroke-width="2.5" stroke-linecap="round" stroke-linejoin="round"></path>
</svg>