<svg width="440" height="82" viewBox="0 0 440 82" fill="none" xmlns="http://www.w3.org/2000/svg">
<path d="M355.289 9.07043C355.289 5.82713 357.913 3.20386 361.076 3.20386C364.241 3.20386 366.942 5.82713 366.942 9.07043C366.942 12.3137 364.318 14.8607 361.076 14.8607C357.837 14.8607 355.289 12.3137 355.289 9.07043Z" fill="black"></path>
<path d="M429.492 10.8635V22.9779H437.701V31.353H429.492V49.7248C429.492 53.2256 431.036 54.6852 434.535 54.6852C435.833 54.6852 437.376 54.4371 437.786 54.3607V62.1636C437.215 62.4116 435.432 63.06 432.017 63.06C424.704 63.06 420.159 58.6721 420.159 51.2702V31.353H412.846V22.9779H414.885H420.967V17.0066C420.967 16.9398 420.967 16.8635 420.967 16.7967V10.8635H429.501H429.492Z" fill="black"></path>
<path d="M107.293 53.2357C109.104 56.374 111.573 58.8732 114.71 60.7332C117.894 62.5457 121.469 63.4518 125.435 63.4518C128.324 63.4518 130.993 62.9653 133.444 61.9828C135.894 60.9525 138.001 59.56 139.764 57.7952C141.528 55.9827 142.796 53.9512 143.587 51.7L135.141 47.8747C134.407 49.9352 133.186 51.5758 131.47 52.7967C129.754 54.0179 127.752 54.6379 125.445 54.6379C123.338 54.6379 121.45 54.1228 119.791 53.0925C118.18 52.0623 116.903 50.641 115.968 48.8288C115.034 47.0163 114.576 44.9367 114.576 42.5807C114.576 40.2247 115.043 38.1451 115.968 36.3329C116.903 34.5204 118.171 33.0992 119.791 32.0689C121.46 31.0386 123.338 30.5238 125.445 30.5238C127.695 30.5238 129.678 31.1341 131.394 32.3647C133.158 33.5856 134.407 35.2072 135.141 37.2103L143.587 33.5379C142.806 31.1341 141.509 29.0833 139.698 27.3663C137.934 25.6016 135.827 24.228 133.377 23.255C130.927 22.2248 128.286 21.7097 125.445 21.7097C121.479 21.7097 117.904 22.6159 114.719 24.4283C111.583 26.2407 109.113 28.7113 107.302 31.8495C105.491 34.9878 104.585 38.5363 104.585 42.5046C104.585 46.4725 105.491 50.0497 107.302 53.2357H107.293Z" fill="black"></path>
<path d="M157.832 22.5963H148.794V62.5735H158.413V40.31C158.413 37.2765 159.243 34.9205 160.911 33.2512C162.58 31.5342 164.782 30.6758 167.518 30.6758H170.969V22.1479H168.614C165.821 22.1479 163.428 22.7394 161.416 23.9126C159.91 24.8188 158.718 26.2497 157.822 28.2147V22.5867L157.832 22.5963Z" fill="black"></path>
<path fill-rule="evenodd" clip-rule="evenodd" d="M193.453 21.7568C205.313 21.7568 214.017 30.6185 214.017 42.7328C214.017 54.8472 205.322 63.7945 193.453 63.7945C181.583 63.7945 172.974 54.933 172.974 42.7328C172.974 30.5327 181.669 21.7568 193.453 21.7568ZM193.453 55.3336C199.306 55.3336 204.502 51.0222 204.502 42.7328C204.502 34.4435 199.297 30.294 193.453 30.294C187.608 30.294 182.403 34.52 182.403 42.7328C182.403 50.9457 187.685 55.3336 193.453 55.3336Z" fill="black"></path>
<path d="M225.381 49.5623L217.172 51.8419C217.658 56.3156 222.044 63.7943 233.503 63.7943C243.581 63.7943 248.452 57.1265 248.452 51.1074C248.452 45.0883 244.553 40.7004 237.079 39.0695L231.063 37.8483C228.622 37.3619 227.077 35.8167 227.077 33.6991C227.077 31.257 229.432 29.149 232.769 29.149C238.051 29.149 239.758 32.812 240.082 35.0823L248.042 32.8024C247.394 28.901 243.819 21.7468 232.769 21.7468C224.561 21.7468 218.221 27.6037 218.221 34.5097C218.221 39.9566 221.882 44.5067 228.87 46.0518L234.724 47.3492C237.889 47.9978 239.357 49.6291 239.357 51.737C239.357 54.1789 237.326 56.2872 233.427 56.2872C228.393 56.2872 225.705 53.1202 225.381 49.5429V49.5623Z" fill="black"></path>
<path d="M251.617 51.8416L259.825 49.5617C260.15 53.139 262.828 56.3059 267.872 56.3059C271.771 56.3059 273.802 54.1883 273.802 51.7558C273.802 49.6382 272.343 48.0166 269.168 47.3679L263.315 46.0706C256.326 44.5255 252.666 39.9753 252.666 34.5285C252.666 27.613 259.005 21.7656 267.214 21.7656C278.264 21.7656 281.839 28.9198 282.487 32.8211L274.527 35.101C274.202 32.8211 272.496 29.1678 267.214 29.1678C263.887 29.1678 261.523 31.2854 261.523 33.7179C261.523 35.8355 263.067 37.3806 265.507 37.8673L271.523 39.0883C278.998 40.7098 282.897 45.2693 282.897 51.1262C282.897 56.983 278.025 63.813 267.948 63.813C256.489 63.813 252.103 56.3343 251.617 51.8606V51.8416Z" fill="black"></path>
<path d="M298.064 22.597H289.025V62.5743H298.644V39.1278C298.644 37.3631 298.96 35.8464 299.599 34.5683C300.237 33.29 301.142 32.3171 302.314 31.6304C303.488 30.8959 304.841 30.5237 306.358 30.5237C307.872 30.5237 309.275 30.8959 310.399 31.6304C311.571 32.3171 312.479 33.2997 313.117 34.5683C313.756 35.8464 314.069 37.3631 314.069 39.1278V62.5743H323.689V39.1278C323.689 37.3631 324.006 35.8464 324.644 34.5683C325.282 33.29 326.187 32.3171 327.359 31.6304C328.533 30.8959 329.886 30.5237 331.403 30.5237C333.014 30.5237 334.387 30.8959 335.512 31.6304C336.636 32.3171 337.524 33.2997 338.153 34.5683C338.792 35.8464 339.105 37.3631 339.105 39.1278V62.5743H348.726V36.8576C348.726 33.8719 348.087 31.2488 346.819 28.9976C345.551 26.6987 343.788 24.9054 341.527 23.6368C339.325 22.3586 336.798 21.729 333.957 21.729C330.773 21.729 327.962 22.5398 325.511 24.1519C323.938 25.163 322.612 26.508 321.546 28.1868C320.667 26.6797 319.446 25.3824 317.873 24.3045C315.375 22.5875 312.487 21.729 309.207 21.729C306.223 21.729 303.631 22.4349 301.417 23.8562C299.98 24.7814 298.855 26.031 298.044 27.5859V22.6066L298.064 22.597Z" fill="black"></path>
<path d="M365.791 62.5739H356.448V22.978H365.791V62.5739Z" fill="black"></path>
<path d="M374.251 22.9691V62.5648H383.783V39.3474C383.783 37.6017 384.129 36.0946 384.805 34.8354C385.482 33.5764 386.425 32.6035 387.646 31.9261C388.856 31.2013 390.238 30.8387 391.793 30.8387C393.348 30.8387 394.777 31.2013 395.94 31.9261C397.149 32.6035 398.095 33.5764 398.78 34.8354C399.457 36.0946 399.803 37.6017 399.803 39.3474V62.5648H409.335V37.0865C409.335 34.1296 408.705 31.5255 407.446 29.2933C406.19 27.0136 404.415 25.2394 402.137 23.9802C399.905 22.7211 397.331 22.0916 394.423 22.0916C391.518 22.0916 389.134 22.7211 387.008 23.9802C385.406 24.915 384.138 26.1933 383.221 27.8244V22.9691H374.268H374.251Z" fill="black"></path>
<path fill-rule="evenodd" clip-rule="evenodd" d="M66.7489 46.0995C59.8752 42.5797 50.7038 41.3968 45.3173 40.9962C52.6487 40.4524 66.9969 38.4589 73.0031 31.0947C82.4036 24.0551 81.9552 0.236609 81.9552 0.236609C81.9552 0.236609 59.3985 -2.25304 49.5503 8.98374C43.4295 15.0791 41.5324 25.6672 40.9792 33.0407C40.4263 25.6767 38.5292 15.0791 32.4084 8.98374C22.5601 -2.26257 0.00329862 0.236609 0.00329862 0.236609C0.00329862 0.236609 -0.27318 15.0886 4.23627 24.8087C6.45765 29.5973 10.519 33.4988 15.2096 35.9025C22.0834 39.4224 31.2549 40.6049 36.6414 41.0056C31.2549 41.4065 22.0834 42.589 15.2096 46.1089C10.519 48.5127 6.45765 52.4141 4.23627 57.2026C-0.27318 66.9132 0.00329862 81.7651 0.00329862 81.7651C0.00329862 81.7651 22.5601 84.255 32.4084 73.0181C38.5292 66.9228 40.4263 56.3252 40.9792 48.961C41.5324 56.3252 43.4295 66.9228 49.5503 73.0181C59.3985 84.255 81.9552 81.7651 81.9552 81.7651C81.9552 81.7651 82.2413 66.9132 77.7222 57.1932C75.5009 52.4047 71.4396 48.5033 66.7489 46.0995ZM67.5021 66.9322C67.3879 66.9038 55.6136 63.5459 40.5027 43.3522C36.0695 46.815 24.934 55.9723 14.3325 68.4776L13.8558 69.0405L14.0465 68.325C14.0751 68.2009 17.5263 56.0675 38.5482 40.6146C36.5175 37.6002 31.741 30.6657 13.3029 14.3255L12.8929 13.963L13.4363 14.0393C13.8272 14.0966 23.3038 15.5846 40.6169 37.9057C40.6169 37.9057 40.8363 38.2108 41.2366 38.745C43.6773 37.0567 50.7419 32.0392 66.625 14.087L66.9873 13.6769L66.9111 14.2206C66.854 14.6117 65.3666 24.0456 43.2008 41.3013C47.386 46.586 56.0426 56.7926 67.6547 66.6367L68.2266 67.1231L67.5118 66.9322H67.5021Z" fill="url(#paint0_linear_19705_3070)"></path>
<defs>
<linearGradient id="paint0_linear_19705_3070" x1="0.117704" y1="0.122142" x2="81.8849" y2="81.8357" gradientUnits="userSpaceOnUse">
<stop stop-color="#5EDD4D"></stop>
<stop offset="1" stop-color="#05CE6C"></stop>
</linearGradient>
</defs>
</svg>