<svg width="40" height="40" viewBox="0 0 40 40" fill="none" xmlns="http://www.w3.org/2000/svg">
<path d="M14.9998 8.625C15.3103 8.62478 15.6118 8.72967 15.8551 8.92259C16.0984 9.11551 16.2692 9.38511 16.3398 9.6875V9.69L16.3423 9.6975L16.3523 9.74L16.3973 9.92C16.652 10.8977 16.9548 11.8622 17.3048 12.81C17.9648 14.59 18.8748 16.4775 19.9473 17.5525C21.0223 18.6275 22.9098 19.535 24.6898 20.195C25.6376 20.5449 26.6021 20.8478 27.5798 21.1025L27.7598 21.1475L27.8023 21.1575H27.8098C28.1125 21.228 28.3824 21.3988 28.5757 21.6422C28.769 21.8855 28.8743 22.187 28.8746 22.4978C28.8749 22.8085 28.7701 23.1102 28.5773 23.3539C28.3844 23.5976 28.1148 23.7689 27.8123 23.84H27.8098L27.8023 23.8425L27.7573 23.8525L27.5823 23.8975C26.6046 24.1522 25.6401 24.4551 24.6923 24.805C22.9098 25.465 21.0223 26.375 19.9473 27.45C18.8723 28.525 17.9648 30.41 17.3048 32.19C16.9549 33.1378 16.652 34.1023 16.3973 35.08L16.3523 35.26L16.3423 35.3025V35.31C16.2718 35.6126 16.101 35.8825 15.8577 36.0759C15.6143 36.2692 15.3128 36.3745 15.0021 36.3748C14.6913 36.3751 14.3896 36.2703 14.1459 36.0775C13.9022 35.8846 13.7309 35.615 13.6598 35.3125V35.31L13.6573 35.3025L13.6473 35.2575L13.6023 35.0825C13.3476 34.1048 13.0448 33.1403 12.6948 32.1925C12.0348 30.41 11.1248 28.5225 10.0523 27.4475C8.97732 26.3725 7.08982 25.465 5.30982 24.805C4.36205 24.455 3.39753 24.1521 2.41982 23.8975L2.23982 23.85L2.19982 23.8425H2.18982C1.88717 23.772 1.61727 23.6012 1.42396 23.3578C1.23065 23.1145 1.12529 22.813 1.125 22.5022C1.12471 22.1915 1.22951 21.8898 1.42236 21.6461C1.61522 21.4024 1.8848 21.2311 2.18732 21.16H2.18982L2.19732 21.1575L2.23982 21.1475L2.41982 21.1025C3.39753 20.8479 4.36205 20.545 5.30982 20.195C7.08982 19.535 8.97732 18.625 10.0523 17.5525C11.1273 16.4775 12.0348 14.59 12.6948 12.81C13.0448 11.8622 13.3477 10.8977 13.6023 9.92L13.6473 9.74L13.6573 9.6975V9.69C13.7279 9.38695 13.899 9.11672 14.1428 8.92333C14.3866 8.72995 14.6887 8.62479 14.9998 8.625ZM14.6898 15.22C14.0298 16.7325 13.1373 18.3525 11.9948 19.495C10.6623 20.825 8.67482 21.82 6.97482 22.5C8.67732 23.1825 10.6623 24.175 11.9948 25.505C13.3273 26.8375 14.3198 28.8225 14.9998 30.525C15.6823 28.8225 16.6748 26.8375 18.0048 25.505C19.3373 24.175 21.3248 23.18 23.0248 22.5C21.3223 21.8175 19.3373 20.825 18.0048 19.495C16.6748 18.1625 15.6798 16.175 14.9998 14.475L14.6898 15.22ZM29.9998 1.125C30.3103 1.12478 30.6118 1.22967 30.8551 1.42259C31.0984 1.61551 31.2692 1.88511 31.3398 2.1875V2.1925L31.3448 2.215L31.3698 2.315L31.4773 2.7025C31.5723 3.035 31.7123 3.4925 31.8973 3.995C32.2898 5.0525 32.8048 6.085 33.3598 6.64C33.9148 7.195 34.9473 7.71 36.0048 8.1025C36.5557 8.30607 37.1164 8.48212 37.6848 8.63L37.7848 8.655L37.8073 8.66H37.8123C38.1155 8.72974 38.3861 8.90024 38.5798 9.14362C38.7736 9.38701 38.8791 9.68891 38.8791 10C38.8791 10.3111 38.7736 10.613 38.5798 10.8564C38.3861 11.0998 38.1155 11.2703 37.8123 11.34H37.8073L37.7848 11.345L37.6848 11.37C37.1165 11.5171 36.5558 11.6923 36.0048 11.895C34.9473 12.29 33.9148 12.805 33.3598 13.36C32.8048 13.915 32.2898 14.9475 31.8973 16.005C31.6939 16.556 31.5179 17.1167 31.3698 17.685L31.3448 17.785L31.3398 17.81C31.2704 18.1132 31.1001 18.384 30.8569 18.5779C30.6137 18.7719 30.3119 18.8777 30.0008 18.878C29.6897 18.8783 29.3877 18.7731 29.1442 18.5795C28.9006 18.386 28.7298 18.1156 28.6598 17.8125V17.8075L28.6548 17.785L28.6298 17.685C28.4826 17.1167 28.3074 16.556 28.1048 16.005C27.7098 14.9475 27.1948 13.915 26.6398 13.36C26.0848 12.805 25.0523 12.29 23.9948 11.8975C23.4439 11.6939 22.8832 11.5179 22.3148 11.37L22.2148 11.345L22.1923 11.34H22.1873C21.8841 11.2703 21.6136 11.0998 21.4198 10.8564C21.2261 10.613 21.1206 10.3111 21.1206 10C21.1206 9.68891 21.2261 9.38701 21.4198 9.14362C21.6136 8.90024 21.8841 8.72974 22.1873 8.66H22.1923L22.2148 8.655L22.3148 8.63L22.7023 8.5225C23.0348 8.4275 23.4923 8.2875 23.9948 8.1025C25.0523 7.71 26.0848 7.195 26.6398 6.64C27.1948 6.085 27.7098 5.0525 28.1023 3.995C28.3057 3.44403 28.4818 2.88335 28.6298 2.315L28.6548 2.215L28.6598 2.1925V2.1875C28.7304 1.88511 28.9012 1.61551 29.1445 1.42259C29.3879 1.22967 29.6893 1.12478 29.9998 1.125ZM29.9998 6.525C29.6248 7.265 29.1623 8.0125 28.5873 8.5875C28.0123 9.1625 27.2623 9.6275 26.5223 10C27.2648 10.375 28.0098 10.8375 28.5873 11.4125C29.1623 11.9875 29.6273 12.735 29.9998 13.475C30.3748 12.735 30.8398 11.9875 31.4123 11.4125C31.9873 10.8375 32.7348 10.3725 33.4748 10C32.718 9.6393 32.0222 9.16273 31.4123 8.5875C30.8368 7.97693 30.3602 7.2802 29.9998 6.5225V6.525Z" fill="#292D32"></path>
</svg>