<svg width="40" height="40" viewBox="0 0 40 40" fill="none" xmlns="http://www.w3.org/2000/svg">
<path d="M21.5369 36.9342C21.1737 36.9668 20.8074 36.9896 20.4379 36.999L19.9995 37.004C20.5178 37.004 21.0305 36.9796 21.5369 36.9342Z" fill="#292D32"></path>
<path fill-rule="evenodd" clip-rule="evenodd" d="M23.1631 23.1631L12.8793 27.1177L16.8349 16.8349L27.1177 12.8793L23.1631 23.1631ZM19.9995 17.9928C19.4673 17.9928 18.9569 18.2043 18.5806 18.5806C18.2043 18.9569 17.9928 19.4673 17.9928 19.9995C17.9928 20.5316 18.2044 21.0421 18.5806 21.4184C18.9569 21.7945 19.4675 22.0062 19.9995 22.0062C20.5316 22.0062 21.0421 21.7946 21.4184 21.4184C21.7946 21.0421 22.0062 20.5316 22.0062 19.9995C22.0062 19.4675 21.7945 18.9569 21.4184 18.5806C21.0421 18.2044 20.5316 17.9928 19.9995 17.9928Z" fill="#292D32"></path>
<path d="M33.5993 20.3373C33.5913 20.6577 33.5718 20.9767 33.5415 21.2938C33.5612 21.088 33.5761 20.8813 33.5863 20.6741L33.5993 20.3373Z" fill="#292D32"></path>
<path fill-rule="evenodd" clip-rule="evenodd" d="M19.9995 3.29992C29.2222 3.30009 36.6981 10.7767 36.6981 19.9995C36.6979 29.2221 29.2221 36.6979 19.9995 36.6981C10.7767 36.6981 3.30009 29.2222 3.29992 19.9995C3.29992 10.7766 10.7766 3.29992 19.9995 3.29992ZM19.9995 6.08883C16.3103 6.08883 12.7718 7.55442 10.1631 10.1631C7.55442 12.7718 6.08883 16.3103 6.08883 19.9995C6.08891 23.6885 7.5546 27.2263 10.1631 29.8349C12.7718 32.4436 16.3103 33.9092 19.9995 33.9092C23.6886 33.9091 27.2263 32.4435 29.8349 29.8349C32.4435 27.2263 33.9091 23.6886 33.9092 19.9995C33.9092 16.3103 32.4436 12.7718 29.8349 10.1631C27.2263 7.5546 23.6885 6.08891 19.9995 6.08883Z" fill="#292D32"></path>
</svg>