<svg width="60" height="60" viewBox="0 0 60 60" fill="none" xmlns="http://www.w3.org/2000/svg">
<circle cx="30" cy="30" r="30" fill="black"></circle>
<path d="M45.3049 16.6804L40.2151 19.2736L15.6368 31.7926C15.5537 31.1587 15.5119 30.5201 15.5116 29.8808C15.5185 24.6905 18.2726 19.8917 22.7506 17.2675C27.2287 14.6433 32.7613 14.586 37.2928 17.1168L40.2062 15.6324L40.6407 15.4107C35.1991 11.461 28.0019 10.8973 22.0117 13.9517C16.0215 17.006 12.2507 23.1622 12.2513 29.8861C12.2513 30.3416 12.2686 30.7952 12.3032 31.2471C12.4022 32.5556 11.7054 33.7954 10.5363 34.3912L9 35.1745V38.8282L13.5229 36.523V36.523L14.9876 35.7754L16.4309 35.0404V35.0404L42.3415 21.8382L45.2531 20.3556L51.2711 17.2885V13.6365L45.3049 16.6804Z" fill="white"></path>
<path d="M51.2711 20.9443L17.9028 37.9343L14.9912 39.4205L9 42.4733V46.1235L14.9501 43.0921L20.0399 40.4989L44.6432 27.9621C44.7264 28.6002 44.7682 29.243 44.7684 29.8864C44.7652 35.0829 42.0079 39.8884 37.5232 42.5135C33.0385 45.1387 27.4984 45.1901 22.9658 42.6486L22.7869 42.7434L19.6286 44.353C25.069 48.3027 32.2649 48.8677 38.255 45.8155C44.2452 42.7632 48.0176 36.6094 48.0198 29.8864C48.0198 29.4268 48.0019 28.9672 47.9679 28.5129C47.869 27.205 48.5649 25.9655 49.7331 25.3689L51.2711 24.5856V20.9443Z" fill="white"></path>
</svg>