<svg width="60" height="60" viewBox="0 0 60 60" fill="none" xmlns="http://www.w3.org/2000/svg">
<circle cx="30" cy="30" r="30" fill="black"></circle>
<path d="M45.2821 36.5652C45.2821 44.9565 38.5286 50 30.2064 50C21.8843 50 16.0893 45.0435 15 38.6957H22.6686C23.4964 41.087 26.2414 42.8261 30.2064 42.8261C34.1714 42.8261 37.7443 40.6087 37.7443 36.6957C37.7443 32.7826 34.6507 30.7391 30.1629 30.7391V36.2609C21.71 36.3043 15.2614 31.5217 15.2614 23.4783C15.2614 15.4348 21.4921 10 30.25 10C39.0079 10 44.28 14.9565 44.8464 21H37.4393C36.8293 18.8261 34.4329 17.1739 30.4243 17.1739C26.4157 17.1739 22.8429 19.4348 22.8429 23.2609C22.8429 27.087 25.9364 28.9565 30.2064 28.9565V23.1304C39.4 23.1304 45.3257 28.6522 45.3257 36.5652H45.2821Z" fill="white"></path>
</svg>