<svg width="137" height="34" viewBox="0 0 137 34" fill="none" xmlns="http://www.w3.org/2000/svg">
<path fill-rule="evenodd" clip-rule="evenodd" d="M47.9361 24.3164H46.3264C46.0198 24.3164 45.8665 24.1727 45.8665 23.8854V10.421C45.8665 10.252 45.7814 10.1674 45.611 10.1674H42.3918C42.0852 10.1674 41.9319 10.0237 41.9319 9.73637V8.44318C41.9319 8.1558 42.0852 8.01212 42.3918 8.01212H51.8707C52.1773 8.01212 52.3306 8.1558 52.3306 8.44318V9.73637C52.3306 10.0237 52.1773 10.1674 51.8707 10.1674H48.6514C48.4641 10.1674 48.3704 10.252 48.3704 10.421V23.8854C48.3704 24.1727 48.2256 24.3164 47.9361 24.3164ZM59.6358 24.3164H57.3875C56.127 24.3164 55.1519 23.9699 54.462 23.2768C53.7722 22.5837 53.4273 21.6202 53.4273 20.3861V15.3148C53.4273 14.0639 53.7722 13.0961 54.462 12.4115C55.1519 11.7269 56.127 11.3845 57.3875 11.3845H59.6358C60.8793 11.3845 61.8544 11.7269 62.5613 12.4115C63.2681 13.0961 63.6216 14.0639 63.6216 15.3148V20.3861C63.6216 21.6202 63.2681 22.5837 62.5613 23.2768C61.8544 23.9699 60.8793 24.3164 59.6358 24.3164ZM57.7452 22.1611H59.3037C60.5301 22.1611 61.1433 21.5441 61.1433 20.3101V15.3909C61.1433 14.1569 60.5301 13.5399 59.3037 13.5399H57.7452C57.0979 13.5399 56.6295 13.6878 56.3399 13.9836C56.0504 14.2794 55.9056 14.7485 55.9056 15.3909V20.3101C55.9056 20.9524 56.0504 21.4215 56.3399 21.7174C56.6295 22.0132 57.0979 22.1611 57.7452 22.1611ZM73.3796 11.3845H75.2192C75.3725 11.3845 75.4789 11.431 75.5385 11.524C75.5981 11.617 75.5769 11.7395 75.4747 11.8917L71.8722 17.5716V17.673L75.7557 23.8093C75.8409 23.9445 75.8536 24.0629 75.794 24.1643C75.7344 24.2657 75.6109 24.3164 75.4236 24.3164H73.7628C73.3711 24.3164 73.0815 24.1727 72.8941 23.8854L69.2916 18.028C69.1724 17.8082 69.1724 17.58 69.2916 17.3434L72.6386 11.7903C72.7919 11.5198 73.0389 11.3845 73.3796 11.3845ZM68.0142 24.3164H66.4045C66.115 24.3164 65.9702 24.1727 65.9702 23.8854V6.92178C65.9702 6.63441 66.115 6.49072 66.4045 6.49072H68.0142C68.3037 6.49072 68.4485 6.63441 68.4485 6.92178V23.8854C68.4485 24.1727 68.3037 24.3164 68.0142 24.3164ZM86.2546 24.3164H80.7359C79.4755 24.3164 78.5003 23.9699 77.8105 23.2768C77.1206 22.5837 76.7757 21.6202 76.7757 20.3861V15.3148C76.7757 14.0639 77.1206 13.0961 77.8105 12.4115C78.5003 11.7269 79.4755 11.3845 80.7359 11.3845H82.831C84.0914 11.3845 85.0708 11.7269 85.7692 12.4115C86.4676 13.0961 86.8167 14.0639 86.8167 15.3148V18.5351C86.8167 18.8394 86.6634 18.9915 86.3568 18.9915H79.5095C79.3222 18.9915 79.2285 19.0761 79.2285 19.2451V20.3354C79.2285 21.5695 79.8502 22.1865 81.0936 22.1865H86.2546C86.5612 22.1865 86.7145 22.3386 86.7145 22.6429V23.9107C86.7145 24.1812 86.5612 24.3164 86.2546 24.3164ZM79.5095 17.2673H84.0829C84.2533 17.2673 84.3384 17.1828 84.3384 17.0137V15.3909C84.3384 14.7485 84.1936 14.2794 83.9041 13.9836C83.6145 13.6878 83.1461 13.5399 82.4988 13.5399H81.0936C80.4464 13.5399 79.9779 13.6878 79.6884 13.9836C79.3988 14.2794 79.254 14.7485 79.254 15.3909V17.0137C79.254 17.1828 79.3392 17.2673 79.5095 17.2673ZM91.0816 24.3164H89.4719C89.1824 24.3164 89.0376 24.1727 89.0376 23.8854V11.8156C89.0376 11.5282 89.1824 11.3845 89.4719 11.3845H91.0816C91.3711 11.3845 91.5159 11.5282 91.5159 11.8156V12.7284H91.6181C92.0269 11.8325 92.8871 11.3845 94.1986 11.3845H95.3228C96.5662 11.3845 97.5201 11.7226 98.1844 12.3988C98.8487 13.075 99.1808 14.047 99.1808 15.3148V23.8854C99.1808 24.1727 99.0275 24.3164 98.7209 24.3164H97.1113C96.8217 24.3164 96.6769 24.1727 96.6769 23.8854V15.4162C96.6769 14.1653 96.0552 13.5399 94.8118 13.5399H93.611C92.2143 13.5399 91.5159 14.2583 91.5159 15.6952V23.8854C91.5159 24.1727 91.3711 24.3164 91.0816 24.3164ZM103.701 27.8917H102.091C101.802 27.8917 101.657 27.748 101.657 27.4606V11.8156C101.657 11.5282 101.802 11.3845 102.091 11.3845H103.701C103.991 11.3845 104.135 11.5282 104.135 11.8156V12.7284H104.238C104.646 11.8325 105.507 11.3845 106.818 11.3845H108.121C109.348 11.3845 110.289 11.7226 110.944 12.3988C111.6 13.075 111.928 14.047 111.928 15.3148V20.3861C111.928 21.6371 111.6 22.6048 110.944 23.2895C110.289 23.9741 109.348 24.3164 108.121 24.3164H106.818C105.507 24.3164 104.646 23.8685 104.238 22.9725H104.135V27.4606C104.135 27.748 103.991 27.8917 103.701 27.8917ZM106.231 22.1611H107.585C108.811 22.1611 109.424 21.5357 109.424 20.2847V15.4162C109.424 14.1653 108.811 13.5399 107.585 13.5399H106.231C104.834 13.5399 104.135 14.2583 104.135 15.6952V20.0058C104.135 21.4427 104.834 22.1611 106.231 22.1611ZM119.003 24.3164H118.007C116.747 24.3164 115.771 23.9699 115.082 23.2768C114.392 22.5837 114.047 21.6202 114.047 20.3861V15.3148C114.047 14.0639 114.392 13.0961 115.082 12.4115C115.771 11.7269 116.747 11.3845 118.007 11.3845H123.73C124.037 11.3845 124.19 11.5282 124.19 11.8156V23.8854C124.19 24.1727 124.037 24.3164 123.73 24.3164H122.12C121.831 24.3164 121.686 24.1727 121.686 23.8854V22.9725H121.584C121.175 23.8685 120.315 24.3164 119.003 24.3164ZM121.686 20.0058V13.7934C121.686 13.6244 121.592 13.5399 121.405 13.5399H118.365C117.138 13.5399 116.525 14.1653 116.525 15.4162V20.2847C116.525 21.5357 117.138 22.1611 118.365 22.1611H119.591C120.988 22.1611 121.686 21.4427 121.686 20.0058ZM131.649 24.3164H130.345C129.119 24.3164 128.178 23.9741 127.522 23.2895C126.866 22.6048 126.539 21.6371 126.539 20.3861V15.3148C126.539 14.047 126.866 13.075 127.522 12.3988C128.178 11.7226 129.119 11.3845 130.345 11.3845H131.649C132.96 11.3845 133.812 11.8325 134.203 12.7284H134.306V6.92178C134.306 6.63441 134.45 6.49072 134.74 6.49072H136.375C136.665 6.49072 136.81 6.63441 136.81 6.92178V23.8854C136.81 24.1727 136.665 24.3164 136.375 24.3164H134.74C134.45 24.3164 134.306 24.1727 134.306 23.8854V22.9725H134.203C133.812 23.8685 132.96 24.3164 131.649 24.3164ZM134.306 20.0058V15.6952C134.306 14.2583 133.607 13.5399 132.211 13.5399H130.856C129.63 13.5399 129.017 14.1653 129.017 15.4162V20.2847C129.017 21.5357 129.63 22.1611 130.856 22.1611H132.211C133.607 22.1611 134.306 21.4427 134.306 20.0058Z" fill="black"></path>
<path d="M16.9912 0C26.3752 0 33.9824 7.60722 33.9824 16.9912C33.9824 26.3752 26.3752 33.9824 16.9912 33.9824C7.60722 33.9824 0 26.3752 0 16.9912C4.9581e-06 15.1105 0.305953 13.3014 0.870117 11.6104H9.00586C7.96853 13.1466 7.36234 14.998 7.3623 16.9912C7.3623 22.3088 11.6736 26.6201 16.9912 26.6201C22.3086 26.6199 26.6191 22.3087 26.6191 16.9912C26.619 11.8399 22.5735 7.63393 17.4863 7.37598L16.9912 7.36328H2.99023C6.0544 2.91585 11.182 1.53161e-05 16.9912 0ZM21.7979 16.999L16.9912 21.8057L12.1855 16.999L16.9912 12.1934L21.7979 16.999Z" fill="#6C5DD3"></path>
</svg>